<svg width="1463" height="768" viewBox="0 0 1463 768" fill="none" xmlns="http://www.w3.org/2000/svg">
<path fill-rule="evenodd" clip-rule="evenodd" d="M263.027 1.03287C260.828 1.55013 258.113 2.46399 256.994 3.06309C255.874 3.66219 254.958 4.57395 254.958 5.08912C254.958 5.60428 257.672 6.32089 260.991 6.68077C264.31 7.04169 270.449 8.05208 274.635 8.92712C278.82 9.80321 285.516 12.1555 289.514 14.1553C294.354 16.5759 298.582 19.7602 302.166 23.6822C305.127 26.9211 309.107 32.6886 311.009 36.4983C312.912 40.3069 315.787 47.3345 317.398 52.1147C319.024 56.94 320.839 60.6354 321.479 60.4245C322.158 60.1989 322.758 56.4899 322.937 51.4044C323.129 45.9821 322.625 40.3489 321.582 36.2748C320.668 32.7054 318.793 27.3208 317.415 24.3096C316.037 21.2984 312.763 16.5402 310.14 13.7357C307.517 10.9311 303.076 7.38793 300.27 5.86133C297.466 4.33368 292.143 2.37166 288.442 1.49872C284.741 0.626824 278.408 -0.0467688 274.368 0.00254411C270.329 0.051857 265.226 0.515608 263.027 1.03287ZM256.717 25.5372C254.509 26.3241 252.456 27.2159 252.151 27.5191C251.848 27.8223 251.911 28.5746 252.292 29.1895C252.672 29.8054 254.509 30.309 256.373 30.309C258.238 30.309 262.577 31.0413 266.017 31.9374C269.456 32.8334 274.28 34.744 276.738 36.1835C279.194 37.623 283.118 40.7853 285.457 43.2111C287.795 45.6369 291.273 50.926 293.186 54.9654C295.099 59.0049 297.234 63.7158 297.931 65.4344C299.086 68.282 299.295 68.3869 300.285 66.6169C300.909 65.5005 301.168 61.0424 300.893 56.1468C300.557 50.1915 299.685 46.0996 298 42.5753C296.674 39.8001 293.523 35.4648 291 32.9414C288.186 30.1275 284.167 27.5128 280.612 26.1835C276.786 24.7513 272.42 24.0295 267.771 24.0599C263.898 24.0851 258.923 24.7503 256.717 25.5372ZM202.289 38.732C199.578 39.1884 194.924 40.8882 191.949 42.5071C188.972 44.1271 185.155 47.1205 183.465 49.1591C181.776 51.1988 179.273 55.2277 177.905 58.113C176.536 60.9984 174.834 66.3326 174.122 69.966C173.329 74.017 173.034 80.9218 173.36 87.813C173.778 96.6201 174.578 101.041 177.057 108.235C178.798 113.285 181.811 120.127 183.753 123.438C185.696 126.75 191.061 133.244 195.678 137.869C201.399 143.601 206.476 147.535 211.626 150.226C215.78 152.398 222.82 155.105 227.268 156.244C232.095 157.477 238.783 158.306 243.847 158.297C248.515 158.288 255.315 157.579 258.958 156.72C262.6 155.862 268.498 153.711 272.064 151.942C275.632 150.172 280.442 147.263 282.755 145.478C285.067 143.692 288.119 140.817 289.537 139.089C290.955 137.361 292.947 133.543 293.962 130.604C294.978 127.666 295.824 123.043 295.843 120.33C295.862 117.618 295.343 112.897 294.692 109.838C294.039 106.781 292.408 101.787 291.065 98.7427C289.723 95.6989 287.113 91.1034 285.267 88.5317C283.419 85.9601 281.089 83.5952 280.087 83.2773C279.073 82.9562 276.003 84.0275 273.169 85.6926C270.367 87.3399 267.938 89.3932 267.772 90.2556C267.605 91.118 268.968 93.6823 270.799 95.9528C272.63 98.2233 275.335 102.678 276.809 105.852C278.528 109.553 279.49 113.461 279.492 116.747C279.493 121.235 279.057 122.26 275.981 125.009C272.738 127.907 272.012 128.106 266.517 127.607C263.244 127.311 257.184 125.648 253.053 123.912C248.921 122.176 241.664 118.483 236.924 115.704C232.185 112.926 225.487 108.136 222.04 105.06C218.594 101.985 212.763 96.0651 209.086 91.906C205.407 87.7459 200.703 80.9355 198.633 76.7701C195.479 70.4287 194.965 68.4677 195.47 64.7042C195.91 61.4275 196.98 59.4015 199.422 57.2181C202.557 54.4167 203.25 54.2499 210.242 54.6087C216.442 54.9266 219.366 55.7796 227.451 59.6281C235.824 63.6141 237.385 64.0537 238.578 62.7621C239.341 61.9364 240.676 59.3721 241.546 57.0638C242.416 54.7556 242.922 52.2899 242.67 51.5838C242.418 50.8787 239.532 48.6775 236.257 46.6924C232.981 44.7083 227.469 42.1546 224.006 41.0193C220.544 39.883 215.35 38.7174 212.465 38.4278C209.58 38.1382 205 38.2746 202.289 38.732ZM262.977 47.1257C261.328 47.6199 259.02 48.8779 257.849 49.9208C256.677 50.9648 255.091 53.2961 254.326 55.1039C253.321 57.4762 253.216 59.37 253.947 61.9164C254.503 63.8564 254.958 65.7765 254.958 66.1836C254.958 66.5896 249.175 71.7538 242.105 77.6577C235.036 83.5616 229.103 88.4961 228.923 88.622C228.741 88.7479 228.92 90.5956 229.32 92.7286C229.72 94.8616 231.097 97.8267 232.379 99.3176C234.248 101.491 235.694 102.043 239.659 102.104C244.607 102.18 244.607 102.18 253.267 87.4909C261.927 72.802 261.927 72.802 267.099 72.2375C269.943 71.927 273.271 71.117 274.494 70.4381C275.717 69.7582 277.488 67.5801 278.429 65.5971C279.369 63.6151 280.139 60.9826 280.139 59.7488C280.139 58.5149 279.216 55.6946 278.087 53.4818C276.617 50.6017 274.825 48.9755 271.771 47.7532C269.425 46.8152 267.161 46.088 266.741 46.1374C266.319 46.1867 264.626 46.6315 262.977 47.1257ZM67.0194 118.843C65.5043 119.634 51.7135 130.029 36.3709 141.945C21.0293 153.86 7.75053 164.647 6.86185 165.915C5.97317 167.185 5.24605 169.493 5.24605 171.046C5.24605 173.124 13.1004 184.211 34.9996 213.044C64.7531 252.217 64.7531 252.217 61.7628 255.889C60.1187 257.909 56.7109 261.877 54.1896 264.707C49.6056 269.853 49.6056 269.853 37.0686 253.165C30.1732 243.988 24.2084 235.937 23.8129 235.276C23.3869 234.564 25.2293 232.445 28.3339 230.076C31.2161 227.878 33.5747 225.787 33.5747 225.43C33.5747 225.072 31.4134 221.982 28.7715 218.564C26.1295 215.144 23.5632 211.929 23.07 211.419C22.557 210.89 18.1965 213.542 12.9221 217.591C7.83448 221.496 2.84547 225.626 1.83613 226.767C0.826789 227.908 0 230.371 0 232.241C0 234.394 1.22339 237.332 3.33965 240.256C5.17577 242.795 13.6303 253.911 22.1278 264.957C37.5775 285.044 37.5775 285.044 33.8444 291.188C31.7911 294.568 27.3875 302.999 24.0584 309.924C20.7292 316.848 16.2565 327.236 14.1171 333.006C11.9788 338.777 8.65913 349.705 6.74012 357.292C4.82007 364.879 2.4688 376.683 1.51507 383.522C0.225587 392.763 -0.089165 400.543 0.290649 413.795C0.710333 428.424 1.28424 433.467 3.48233 441.839C4.95648 447.452 8.10308 456.895 10.4753 462.823C12.8487 468.751 17.4568 478.322 20.7167 484.092C23.9766 489.863 34.306 506.038 43.6713 520.035C53.0355 534.034 63.3314 550.795 66.5514 557.282C70.083 564.398 73.3985 573.034 74.9073 579.046C76.8263 586.695 77.5713 593.285 78.1064 607.375C78.4904 617.473 79.4829 631.218 80.3139 637.919C81.1438 644.62 83.0093 654.198 84.4593 659.201C85.9093 664.206 88.4558 671.3 90.1188 674.966C91.7807 678.633 95.0238 684.4 97.3258 687.783C99.6277 691.167 105.265 698.184 109.853 703.377C118.196 712.82 118.196 712.82 114.986 719.64C111.926 726.145 111.76 727.199 111.384 742.495C111.108 753.735 111.382 759.475 112.3 761.692C113.021 763.432 114.937 765.541 116.558 766.379C118.179 767.218 120.938 767.904 122.689 767.904C124.723 767.904 127.11 766.799 129.298 764.844C132.725 761.785 132.725 761.785 133.25 746.221C133.647 734.436 134.197 729.892 135.517 727.509C136.475 725.778 138.6 723.088 140.239 721.532C141.876 719.976 144.973 717.969 147.118 717.073C150.524 715.65 160.746 715.443 227.679 715.443C294.557 715.443 304.837 715.651 308.239 717.071C310.385 717.966 313.713 720.208 315.636 722.054C317.559 723.9 319.678 726.355 320.343 727.509C321.037 728.713 321.784 736.469 322.093 745.696C322.632 761.784 322.632 761.784 326.059 764.844C328.247 766.799 330.634 767.904 332.668 767.904C334.419 767.904 337.152 767.231 338.743 766.409C340.333 765.586 342.198 763.675 342.887 762.163C343.659 760.468 344.141 754.03 344.141 745.407C344.141 734.266 343.709 730.039 342.025 724.734C340.86 721.067 339.255 716.903 338.456 715.48C337.066 713.001 337.345 712.515 345.183 703.783C349.68 698.773 355.358 691.732 357.8 688.137C360.241 684.541 363.831 678.151 365.779 673.935C367.726 669.721 370.476 661.498 371.889 655.663C373.302 649.828 374.957 639.527 375.568 632.772C376.178 626.017 377.115 612.463 377.652 602.653C378.451 588.023 379.121 583.308 381.374 576.423C382.886 571.806 386.491 563.311 389.387 557.545C392.282 551.778 402.76 534.781 412.672 519.773C423.03 504.089 433.85 486.24 438.116 477.797C442.198 469.718 447.035 458.387 448.864 452.616C450.693 446.845 452.954 437.639 453.889 432.157C455.21 424.416 455.471 417.852 455.053 402.779C454.686 389.504 453.818 379.651 452.309 371.611C451.095 365.143 448.471 354.473 446.478 347.897C444.485 341.321 440.495 330.376 437.613 323.574C434.731 316.773 429.473 306.143 425.931 299.954C422.388 293.765 415.708 283.56 411.085 277.278C405.982 270.343 396.199 259.421 386.178 249.47C369.675 233.085 369.675 233.085 372.394 229.751C375.115 226.419 375.115 226.419 385.595 233.927C391.361 238.057 397.965 242.317 400.274 243.393C402.582 244.47 406.62 245.361 409.249 245.374C412.331 245.389 415.973 244.427 419.516 242.662C424.569 240.143 426.23 238.205 440.414 218.268C448.889 206.355 456.662 194.974 457.689 192.977C458.828 190.758 459.545 187.083 459.531 183.535C459.517 180.134 458.702 175.982 457.565 173.526C456.497 171.218 454.264 168.086 452.604 166.566C450.944 165.045 435.797 154.048 418.941 142.125C392.65 123.528 387.485 120.279 382.581 119.249C378.247 118.341 375.867 118.35 372.736 119.288C370.465 119.968 366.999 121.608 365.035 122.932C362.913 124.362 354.992 134.479 345.523 147.853C335.803 161.58 329.097 172.094 328.342 174.792C327.647 177.275 327.402 181.192 327.785 183.716C328.159 186.19 329.525 190.104 330.82 192.412C332.471 195.352 336.622 199.062 344.691 204.804C351.025 209.312 356.307 213.325 356.429 213.722C356.551 214.12 355.54 215.806 354.181 217.469C351.711 220.493 351.711 220.493 342.942 215.225C338.12 212.328 330.211 207.977 325.366 205.556C320.522 203.135 311.794 199.298 305.969 197.027C300.144 194.758 290.652 191.547 284.874 189.893C279.096 188.239 269.528 186.04 263.614 185.007C252.86 183.129 252.86 183.129 252.86 179.605C252.86 177.667 252.209 174.524 251.413 172.62C250.618 170.715 248.7 168.16 247.152 166.943C245.604 165.726 241.652 164.21 238.369 163.574C235.086 162.939 228.387 161.206 223.482 159.725C218.577 158.244 212.364 155.918 209.677 154.556C206.989 153.195 201.56 149.629 197.611 146.633C191.957 142.343 189.429 141.097 185.71 140.772C182.34 140.477 180.087 140.926 177.841 142.342C176.109 143.432 173.41 146.68 171.842 149.56C170.274 152.441 168.235 157.595 167.308 161.014C166.337 164.601 165.493 172.535 165.314 179.766C165.004 192.3 165.004 192.3 154.635 196.239C148.932 198.407 143.29 200.202 142.096 200.231C140.459 200.268 132.224 190.371 108.596 159.969C91.3663 137.798 76.1496 119.149 74.7824 118.526C73.4153 117.903 71.7293 117.397 71.0347 117.4C70.3401 117.404 68.5334 118.053 67.0194 118.843ZM375.309 143.886C373.926 145.761 367.47 154.776 360.963 163.919C351.091 177.788 349.37 180.763 350.572 181.879C351.363 182.615 364.494 192.064 379.751 202.876C395.01 213.688 408.021 222.736 408.666 222.984C409.313 223.231 416.087 214.626 423.724 203.859C431.36 193.092 437.705 183.925 437.826 183.487C437.947 183.05 424.678 173.194 408.34 161.584C392.002 149.975 378.452 140.476 378.229 140.476C378.005 140.476 376.692 142.011 375.309 143.886ZM48.7568 156.56C38.3518 164.737 29.7074 171.9 29.5479 172.477C29.3873 173.054 43.41 191.971 60.7094 214.516C92.1626 255.505 92.1626 255.505 78.8093 269.075C70.3149 277.705 63.0555 286.271 58.8607 292.612C55.2346 298.094 48.7799 309.661 44.519 318.317C40.2572 326.973 34.6743 340.429 32.1132 348.22C29.5521 356.01 26.4611 367.543 25.244 373.848C24.0269 380.152 22.579 390.857 22.025 397.635C21.3766 405.572 21.3819 413.631 22.0408 420.271C22.6032 425.942 23.7541 433.467 24.5998 436.992C25.4455 440.518 27.3162 446.534 28.7568 450.362C30.1984 454.191 33.8622 462.161 36.8986 468.074C39.9361 473.986 50.5541 491.012 60.4943 505.909C70.4356 520.805 81.1942 538.126 84.4027 544.399C87.6122 550.672 91.8636 560.681 93.8497 566.639C95.837 572.597 97.948 581.485 98.5408 586.39C99.1336 591.296 100.095 604.752 100.678 616.293C101.305 628.741 102.545 641.13 103.724 646.748C104.816 651.958 106.797 658.804 108.125 661.962C109.453 665.12 112.497 670.773 114.892 674.524C117.285 678.275 122.786 685.094 127.115 689.676C134.985 698.008 134.985 698.008 141.2 695.971C147.134 694.027 151.062 693.934 228.203 693.934C304.225 693.934 309.323 694.05 314.588 695.884C320.182 697.833 320.182 697.833 323.38 694.835C325.139 693.185 329.532 688.404 333.142 684.209C336.751 680.015 341.368 673.405 343.4 669.52C345.433 665.636 348.073 659.456 349.271 655.787C350.468 652.117 352.154 644.091 353.019 637.951C353.885 631.81 355.054 617.106 355.617 605.276C356.452 587.733 357.136 581.929 359.326 573.8C360.916 567.9 364.961 557.838 369.24 549.143C373.823 539.831 383.022 524.528 394.374 507.332C404.223 492.415 415.073 474.709 418.486 467.987C421.898 461.264 425.871 452.459 427.314 448.419C428.756 444.38 430.772 437.062 431.793 432.157C433.104 425.859 433.628 418.766 433.576 408.025C433.536 399.657 432.755 387.897 431.842 381.89C430.928 375.883 428.932 366.204 427.404 360.381C425.878 354.558 423.093 345.751 421.216 340.81C419.34 335.869 415.584 327.405 412.87 322.001C410.155 316.596 405.583 308.381 402.707 303.746C399.832 299.109 394.515 291.521 390.892 286.882C387.269 282.243 380.88 274.781 376.695 270.3C372.509 265.819 364.772 258.533 359.498 254.11C354.226 249.685 344.954 242.78 338.895 238.764C332.836 234.748 321.268 228.25 313.189 224.324C305.11 220.398 293.36 215.487 287.079 213.412C280.797 211.337 269.466 208.482 261.898 207.067C254.33 205.653 245.818 204.215 242.983 203.872C239.247 203.42 237.011 202.43 234.852 200.272C232.438 197.857 231.875 196.375 231.875 192.423C231.875 189.745 231.416 186.694 230.855 185.646C230.293 184.596 228.051 183.406 225.871 182.998C223.692 182.592 217.659 180.895 212.465 179.228C207.271 177.56 199.766 174.287 195.787 171.954C191.807 169.621 188.306 167.958 188.006 168.258C187.706 168.558 187.42 173.408 187.372 179.033C187.324 184.66 187.684 192.362 188.172 196.146C189.012 202.665 188.916 203.2 186.326 206.277C184.324 208.655 181.557 210.136 175.996 211.805C171.817 213.058 161.153 216.936 152.298 220.423C138.824 225.726 135.983 226.527 134.885 225.325C134.165 224.535 119.25 205.357 101.743 182.707C84.2359 160.056 69.4084 141.563 68.7925 141.609C68.1777 141.654 59.1608 148.383 48.7568 156.56ZM54.5652 163.597C47.9332 168.748 42.3556 173.415 42.1709 173.969C41.9862 174.523 44.2693 178.072 47.2438 181.858C50.2183 185.642 52.8844 188.74 53.1677 188.74C53.451 188.74 59.3098 184.382 66.1873 179.057C73.0639 173.731 78.6908 168.958 78.6908 168.451C78.6908 167.943 76.2891 164.51 73.3545 160.822C70.4198 157.133 67.7045 154.142 67.3215 154.173C66.9386 154.206 61.1983 158.446 54.5652 163.597ZM71.5562 186.258C58.6509 196.273 58.6509 196.273 61.3263 199.851C62.7973 201.818 65.2378 205.081 66.7497 207.101C68.2606 209.121 69.9435 210.773 70.4881 210.773C71.0336 210.773 76.7613 206.697 83.2171 201.715C89.6718 196.734 95.3627 192.288 95.8621 191.836C96.3616 191.384 94.2369 187.696 91.1407 183.639C88.0445 179.583 85.2746 176.26 84.986 176.255C84.6975 176.25 78.6541 180.751 71.5562 186.258ZM89.3927 209.341C76.4874 219.356 76.4874 219.356 79.1629 222.933C80.6339 224.901 83.0744 228.164 84.5863 230.184C86.0972 232.203 87.7801 233.856 88.3246 233.856C88.8702 233.856 94.5978 229.78 101.054 224.798C107.508 219.816 113.199 215.371 113.699 214.919C114.198 214.466 112.074 210.778 108.977 206.722C105.881 202.666 103.111 199.343 102.823 199.338C102.534 199.333 96.4906 203.834 89.3927 209.341ZM218.017 394.809C215.301 395.539 211.176 397.455 208.851 399.066C206.525 400.678 202.948 404.519 200.901 407.604C198.854 410.688 185.334 438.839 170.855 470.161C156.377 501.483 143.606 529.943 142.475 533.405C141.058 537.745 140.582 541.37 140.941 545.075C141.229 548.031 142.405 552.281 143.556 554.518C144.707 556.755 146.99 559.831 148.629 561.352C150.269 562.873 153.263 564.998 155.283 566.074C158.494 567.784 161.954 568.071 182.825 568.363C206.694 568.695 206.694 568.695 206.703 590.921C206.708 603.144 207.178 617.214 207.748 622.187C208.318 627.159 209.493 632.926 210.36 635C211.227 637.076 213.471 640.521 215.348 642.66C217.225 644.797 220.794 647.445 223.278 648.544C225.845 649.679 230.15 650.538 233.246 650.534C236.243 650.529 240.449 649.788 242.591 648.887C244.734 647.986 248.173 645.768 250.235 643.958C252.296 642.148 255.811 637.544 258.047 633.726C260.282 629.909 274.035 600.817 288.608 569.078C314.033 513.711 315.127 511.064 315.596 503.792C316.027 497.109 315.748 495.525 313.244 490.406C311.682 487.213 308.873 483.432 307.003 482.006C305.132 480.58 301.568 478.694 299.084 477.818C295.582 476.583 289.529 476.223 272.223 476.223C249.881 476.223 249.881 476.223 249.464 446.059C249.116 420.868 248.751 415.106 247.252 411.114C246.264 408.484 244.054 404.632 242.339 402.552C240.625 400.471 237.215 397.831 234.762 396.683C232.309 395.535 228.649 394.345 226.629 394.039C224.61 393.732 220.735 394.079 218.017 394.809ZM219.802 418.957C218.25 420.992 204.946 448.755 190.238 480.654C175.529 512.552 163.249 540.116 162.949 541.906C162.532 544.392 162.864 545.375 164.351 546.069C165.423 546.569 179.756 547.133 196.202 547.324C222.445 547.628 226.265 547.882 227.416 549.394C228.4 550.688 228.739 559.523 228.774 584.755C228.799 603.255 229.218 620.455 229.706 622.978C230.193 625.501 231.191 627.936 231.925 628.389C232.659 628.842 233.802 629.005 234.465 628.751C235.129 628.496 237.148 625.825 238.951 622.815C240.754 619.805 253.642 592.555 267.591 562.259C281.539 531.963 293.434 505.836 294.023 504.199C294.882 501.821 294.746 500.872 293.353 499.478C291.832 497.956 287.696 497.665 260.985 497.208C230.36 496.683 230.36 496.683 229.035 494.06C228.048 492.106 227.702 482.468 227.679 456.288C227.656 430.517 227.302 420.462 226.351 418.6C225.639 417.202 224.509 415.879 223.84 415.659C223.171 415.438 221.354 416.923 219.802 418.957Z" fill="url(#paint0_linear_75_220)"/>
<path d="M595.621 576.211V274.833H652.548V523.052H782.309V576.211H595.621ZM822.08 576.211V274.833H879.007V576.211H822.08ZM1011.66 576.211V327.993H916.637V274.833H1163.6V327.993H1068.58V576.211H1011.66ZM1197.23 576.211V274.833H1393.97V327.993H1254.16V392.454H1368.85V445.614H1254.16V523.052H1393.97V576.211H1197.23Z" fill="url(#paint1_linear_75_220)"/>
<path d="M596.802 214.47V73.7946H608.036V140.615L674.955 73.7946H689.804L622.494 141.397L695.665 214.47H680.621L608.036 142.569V214.47H596.802ZM936.019 214.47V73.7946H1022.96V84.736H947.253V138.173H1011.24V149.114H947.253V203.528H1022.96V214.47H936.019ZM1324.35 217.4C1310.35 217.4 1298.59 214.307 1289.08 208.12C1279.57 201.868 1272.41 193.238 1267.59 182.232C1262.77 171.225 1260.36 158.525 1260.36 144.132C1260.36 129.739 1262.77 117.039 1267.59 106.033C1272.41 95.0261 1279.57 86.4293 1289.08 80.2422C1298.59 73.99 1310.35 70.8639 1324.35 70.8639C1340.7 70.8639 1353.95 75.0972 1364.11 83.5637C1374.33 92.0303 1381.27 103.362 1384.92 117.56L1373.29 120.393C1370.3 108.605 1364.69 99.2594 1356.49 92.3559C1348.35 85.3873 1337.63 81.903 1324.35 81.903C1312.82 81.903 1303.21 84.5406 1295.53 89.8159C1287.91 95.0913 1282.15 102.418 1278.24 111.796C1274.4 121.175 1272.44 131.953 1272.38 144.132C1272.25 156.311 1274.1 167.09 1277.94 176.468C1281.85 185.781 1287.68 193.108 1295.43 198.448C1303.18 203.724 1312.82 206.361 1324.35 206.361C1337.63 206.361 1348.35 202.877 1356.49 195.908C1364.69 188.94 1370.3 179.594 1373.29 167.871L1384.92 170.704C1381.27 184.902 1374.33 196.234 1364.11 204.701C1353.95 213.167 1340.7 217.4 1324.35 217.4Z" fill="url(#paint2_linear_75_220)"/>
<path d="M589.28 723.435L589.406 716.526L630.983 678.78C634.668 675.472 637.075 672.311 638.206 669.297C639.336 666.24 639.901 662.974 639.901 659.499C639.901 655.563 638.959 651.983 637.075 648.759C635.191 645.535 632.637 642.981 629.413 641.097C626.231 639.171 622.651 638.208 618.673 638.208C614.612 638.208 610.969 639.192 607.745 641.16C604.521 643.128 601.967 645.724 600.083 648.948C598.241 652.172 597.319 655.689 597.319 659.499H590.034C590.034 654.182 591.311 649.387 593.865 645.117C596.419 640.804 599.853 637.392 604.165 634.88C608.52 632.367 613.377 631.111 618.736 631.111C624.137 631.111 628.973 632.409 633.244 635.005C637.557 637.559 640.969 640.993 643.481 645.305C645.993 649.618 647.249 654.37 647.249 659.562C647.249 663.163 646.831 666.387 645.993 669.234C645.198 672.039 643.921 674.677 642.162 677.147C640.404 679.576 638.143 682.025 635.379 684.495L596.126 720.106L594.619 716.338H647.249V723.435H589.28ZM866.693 725.319C861.376 725.319 856.561 724.042 852.248 721.488C847.977 718.934 844.565 715.521 842.011 711.25C839.457 706.938 838.18 702.123 838.18 696.805V659.625C838.18 654.307 839.457 649.513 842.011 645.242C844.565 640.93 847.977 637.496 852.248 634.942C856.561 632.388 861.376 631.111 866.693 631.111C872.011 631.111 876.826 632.388 881.138 634.942C885.451 637.496 888.863 640.93 891.375 645.242C893.929 649.513 895.207 654.307 895.207 659.625V696.805C895.207 702.123 893.929 706.938 891.375 711.25C888.863 715.521 885.451 718.934 881.138 721.488C876.826 724.042 872.011 725.319 866.693 725.319ZM866.693 718.222C870.587 718.222 874.125 717.28 877.307 715.396C880.531 713.47 883.106 710.895 885.032 707.671C886.958 704.447 887.921 700.888 887.921 696.994V659.373C887.921 655.521 886.958 651.983 885.032 648.759C883.106 645.535 880.531 642.981 877.307 641.097C874.125 639.171 870.587 638.208 866.693 638.208C862.799 638.208 859.24 639.171 856.016 641.097C852.834 642.981 850.28 645.535 848.354 648.759C846.428 651.983 845.465 655.521 845.465 659.373V696.994C845.465 700.888 846.428 704.447 848.354 707.671C850.28 710.895 852.834 713.47 856.016 715.396C859.24 717.28 862.799 718.222 866.693 718.222ZM1115.56 725.319C1109.99 725.319 1105.09 724.23 1100.86 722.053C1096.63 719.834 1093.32 716.735 1090.94 712.758C1088.55 708.738 1087.36 703.986 1087.36 698.501C1087.36 692.681 1088.78 687.573 1091.63 683.177C1094.48 678.738 1098.87 675.431 1104.82 673.253L1104.76 676.582C1099.73 675.117 1095.92 672.374 1093.32 668.355C1090.73 664.335 1089.43 659.897 1089.43 655.04C1089.43 650.057 1090.54 645.787 1092.76 642.228C1095.02 638.627 1098.12 635.884 1102.05 634C1105.99 632.074 1110.49 631.111 1115.56 631.111C1120.62 631.111 1125.1 632.074 1129 634C1132.93 635.884 1136.01 638.627 1138.23 642.228C1140.49 645.787 1141.62 650.057 1141.62 655.04C1141.62 659.897 1140.39 664.314 1137.92 668.292C1135.45 672.269 1131.64 674.991 1126.49 676.456L1126.05 673.316C1132.03 675.41 1136.49 678.676 1139.42 683.114C1142.35 687.552 1143.82 692.681 1143.82 698.501C1143.82 703.986 1142.61 708.738 1140.18 712.758C1137.79 716.735 1134.46 719.834 1130.19 722.053C1125.96 724.23 1121.08 725.319 1115.56 725.319ZM1115.56 718.222C1121.67 718.222 1126.61 716.526 1130.38 713.135C1134.19 709.743 1136.1 704.865 1136.1 698.501C1136.1 692.053 1134.21 687.154 1130.44 683.805C1126.72 680.413 1121.75 678.717 1115.56 678.717C1109.32 678.717 1104.32 680.413 1100.55 683.805C1096.82 687.154 1094.96 692.053 1094.96 698.501C1094.96 704.865 1096.86 709.743 1100.67 713.135C1104.48 716.526 1109.44 718.222 1115.56 718.222ZM1115.56 671.62C1121 671.62 1125.42 670.239 1128.81 667.475C1132.2 664.67 1133.9 660.525 1133.9 655.04C1133.9 649.555 1132.2 645.431 1128.81 642.667C1125.42 639.862 1121 638.459 1115.56 638.459C1110.07 638.459 1105.63 639.862 1102.24 642.667C1098.85 645.431 1097.16 649.555 1097.16 655.04C1097.16 660.525 1098.85 664.67 1102.24 667.475C1105.63 670.239 1110.07 671.62 1115.56 671.62ZM1333.47 723.435L1333.6 716.526L1375.17 678.78C1378.86 675.472 1381.27 672.311 1382.4 669.297C1383.53 666.24 1384.09 662.974 1384.09 659.499C1384.09 655.563 1383.15 651.983 1381.27 648.759C1379.38 645.535 1376.83 642.981 1373.6 641.097C1370.42 639.171 1366.84 638.208 1362.86 638.208C1358.8 638.208 1355.16 639.192 1351.94 641.16C1348.71 643.128 1346.16 645.724 1344.27 648.948C1342.43 652.172 1341.51 655.689 1341.51 659.499H1334.22C1334.22 654.182 1335.5 649.387 1338.06 645.117C1340.61 640.804 1344.04 637.392 1348.36 634.88C1352.71 632.367 1357.57 631.111 1362.93 631.111C1368.33 631.111 1373.16 632.409 1377.43 635.005C1381.75 637.559 1385.16 640.993 1387.67 645.305C1390.18 649.618 1391.44 654.37 1391.44 659.562C1391.44 663.163 1391.02 666.387 1390.18 669.234C1389.39 672.039 1388.11 674.677 1386.35 677.147C1384.59 679.576 1382.33 682.025 1379.57 684.495L1340.32 720.106L1338.81 716.338H1391.44V723.435H1333.47Z" fill="url(#paint3_linear_75_220)"/>
<defs>
<linearGradient id="paint0_linear_75_220" x1="229.766" y1="0" x2="229.766" y2="767.904" gradientUnits="userSpaceOnUse">
<stop stop-color="#0B8EFD"/>
<stop offset="1" stop-color="#002D71"/>
</linearGradient>
<linearGradient id="paint1_linear_75_220" x1="988.483" y1="130.211" x2="988.483" y2="644.718" gradientUnits="userSpaceOnUse">
<stop stop-color="#0B8EFD"/>
<stop offset="1" stop-color="#002D71"/>
</linearGradient>
<linearGradient id="paint2_linear_75_220" x1="988.125" y1="6.46973" x2="988.125" y2="273.47" gradientUnits="userSpaceOnUse">
<stop stop-color="#0B8EFD"/>
<stop offset="1" stop-color="#002D71"/>
</linearGradient>
<linearGradient id="paint3_linear_75_220" x1="999" y1="589.435" x2="999" y2="761.435" gradientUnits="userSpaceOnUse">
<stop stop-color="#0B8EFD"/>
<stop offset="1" stop-color="#002D71"/>
</linearGradient>
</defs>
</svg>
